<?xml version="1.0" encoding="UTF-8" standalone="no"?>
<!DOCTYPE svg PUBLIC "-//W3C//DTD SVG 1.1//EN" "http://www.w3.org/Graphics/SVG/1.1/DTD/svg11.dtd">
<svg width="100%" height="100%" viewBox="0 0 768 768" version="1.1" xmlns="http://www.w3.org/2000/svg" xmlns:xlink="http://www.w3.org/1999/xlink" xml:space="preserve" xmlns:serif="http://www.serif.com/" style="fill-rule:evenodd;clip-rule:evenodd;stroke-linejoin:round;stroke-miterlimit:2;">
    <g id="Polybjorn-logo" serif:id="Polybjorn logo">
        <path d="M381.705,252.415C358.509,200.341 355.781,201.209 353.199,182.539C351.631,171.197 381.664,199.918 385.169,197.076C386.999,195.592 399.932,185.106 409.449,180.404C420.156,175.114 408.722,200.675 408.006,202.276C406.11,206.516 384.682,254.422 384.192,255.222C383.477,256.387 383.44,255.267 381.705,252.415Z" style="fill:rgb(252,189,113);"/>
        <path d="M642.287,458.531C643.387,463.571 648.506,483.972 648.495,487.495C641.038,481.801 636.661,481.689 635.523,481.661C635.362,481.656 628.137,489.324 622.312,500.407C618.458,507.738 615.927,507.096 605.766,512.889C600.081,516.13 604.94,533.739 605.42,535.481C605.211,539.206 605.363,539.037 606.164,542.584C612.958,572.693 612.176,573.425 614.965,574.941C607.803,589.812 596.158,566.182 580.545,578.565C548.291,604.147 537.559,609.198 533.411,611.149C533.195,609.679 531.689,610.883 531.487,609.507C531.439,609.18 531.449,609.249 532.583,605.525C532.945,604.337 535.032,597.488 536.384,590.48C536.586,589.431 536.555,589.591 539.442,577.486C539.807,575.958 542.818,563.333 544.271,558.454C546.92,549.561 545.676,548.455 553.303,543.125C590.173,517.363 600.099,507.474 603.709,504.689C615.016,495.967 610.604,455.495 620.464,456.298C640.668,457.942 640.532,458.483 642.287,458.531Z" style="fill:rgb(64,42,46);"/>
        <path d="M456.613,263.699C490.407,247.742 490.757,247.564 493.421,248.708C504.415,253.43 521.664,263.006 533.83,269.004C546.246,274.829 546.14,274.843 557.151,282.895C571.666,293.004 582.423,301.399 601.579,310.381C601.579,310.381 602.937,311.572 603.055,311.675C612.808,326.784 612.675,326.708 622.782,341.454C619.508,341.383 600.877,332.15 569.587,323.16C564.393,321.668 564.745,323.487 564.424,323.576C559.161,316.592 548.439,302.656 547.043,300.842C545.075,298.433 524.757,273.549 519.5,273.396C499.8,272.825 475.571,284.015 453.384,291.233C435.984,296.894 435.045,303.813 426.772,296.369C427.46,294.794 435.032,277.459 435.819,276.889C437.415,275.733 437.775,276.352 456.613,263.699Z" style="fill:rgb(253,208,138);"/>
        <path d="M154.302,467.504C156.593,469.252 156.891,468.858 157.295,470.5C157.466,471.199 159.118,477.923 158.336,479.439C156.08,483.809 157.796,483.881 159.331,488.549C154.827,506.065 179.872,516.629 192.186,526.895C194.486,528.813 214.363,540.838 219.614,546.131C225.465,552.029 223.054,553.2 225.796,563.453C232.127,587.132 232.463,586.947 237.401,610.947C220.987,602.83 189.267,582.495 187.485,583.474C185.71,584.448 186.14,590.883 181.567,585.435C168.808,570.235 157.256,584.641 152.681,576.43C156.164,575.959 158.492,556.584 161.676,545.553C162.46,542.835 162.22,542.951 162.79,537.41L163.297,535.491C165.5,523.079 168.471,516.89 159.532,510.454C161.659,508.952 163.573,508.902 161.582,507.27C152.034,499.446 156.73,497.072 154.389,480.509C154.961,474.94 155.734,474.872 155.335,474.609C153.914,473.675 154.404,473.368 154.302,467.504Z" style="fill:rgb(59,40,45);"/>
        <path d="M266.579,159.722C275.247,165.491 329.451,178.365 329.389,180.532C329.355,181.741 315.827,195.821 306.285,206.812C302.999,202.835 302.939,203.073 300.299,198.712C298.066,195.023 230.539,210.467 224.543,211.839C200.353,217.822 200.622,218.463 198.476,218.354C197.849,218.322 197.683,217.148 197.056,217.116C257.555,163.425 257.751,163.666 266.579,159.722Z" style="fill:rgb(253,212,145);"/>
        <path d="M140.404,400.125C138.756,405.69 115.961,486.996 121.49,486.462C123.995,486.22 133.402,475.877 137.243,485.588C139.137,490.379 147.561,503.923 148.527,505.477C151.855,510.827 156.84,511.249 156.881,512.088C157.695,528.619 156.318,530.38 155.352,531.614C146.081,522.882 138.445,519.001 124.007,499.889C112.438,484.575 109.116,488.317 108.459,486.831C106.841,483.172 109.089,482.292 106.16,479.512C105.122,442.669 100.538,442.267 109.219,406.4C109.586,405.776 109.954,405.151 110.321,404.526C112.752,404.586 112.427,402.306 140.404,400.125Z" style="fill:rgb(95,57,52);"/>
        <path d="M333.615,449.484C337.904,449.847 350.539,443.115 368.493,442.336C416.211,440.266 430.347,449.738 434.4,449.481C435.5,453.233 435.395,472.08 431.325,464.617C426.644,456.032 397.349,447.165 395.854,455.58C392.283,475.684 399.722,475.458 410.162,482.84C412.18,484.267 412.289,487.195 385.41,501.322C383.789,502.174 369.602,493.614 357.895,485.091C353.493,481.886 379.972,477.836 372.182,454.612C370.233,448.8 340.728,454.498 337.227,464.343C335.446,469.352 332.81,459.999 333.615,449.484Z" style="fill:rgb(60,54,75);"/>
        <path d="M505.064,560.006C502.07,567.726 472.672,616.519 468.917,624.724C464.869,633.569 464.952,633.768 464.53,633.782C462.904,633.839 463.202,633.271 460.706,631.021C440.026,612.408 430.895,616.073 435.164,607.458C438.575,600.574 438.788,600.818 439.05,600.215C440.79,596.225 441.507,596.733 442.582,592.624C443.312,592.01 444.043,591.396 444.773,590.782C448.797,587.689 456.527,577.808 466.51,569.512C471.78,565.133 473.101,562.398 474.273,561.256C474.944,561.481 474.808,562.778 475.479,563.003C476.816,563.451 486.265,555.889 505.064,560.006Z" style="fill:rgb(92,55,51);"/>
        <path d="M381.705,252.415C358.509,200.341 355.781,201.209 353.199,182.539C351.631,171.197 381.664,199.918 385.169,197.076C386.999,195.592 399.932,185.106 409.449,180.404C420.156,175.114 408.722,200.675 408.006,202.276C406.11,206.516 384.682,254.422 384.192,255.222C383.477,256.387 383.44,255.267 381.705,252.415Z" style="fill:rgb(205,129,70);"/>
        <path d="M106.16,479.512C109.089,482.292 106.841,483.172 108.459,486.831C109.116,488.317 112.438,484.575 124.007,499.889C138.445,519.001 146.081,522.882 155.352,531.614C158.266,533.778 162.202,536.938 162.79,537.41C162.22,542.951 162.46,542.835 161.676,545.553C158.492,556.584 156.164,575.959 152.681,576.43C150.1,570.197 150.227,570.31 146.954,564.246C139.653,551.584 139.815,551.694 131.972,539.204C126.915,531.15 121.83,539.525 111.514,542.589C108.41,543.511 106.72,491.935 106.16,479.512Z" style="fill:rgb(109,65,56);"/>
        <path d="M223.107,275.223C224.071,285.924 214.696,296.489 220.846,300.82C209.39,315.193 209.415,315.188 208.414,316.432C207.054,318.122 204.136,322.482 201.752,324.883C197.206,324.236 197.181,324.799 176.497,331.491C149.337,340.277 148.159,342.645 146.312,339.365C156.365,324.924 156.861,325.394 164.251,311.453C165.487,309.121 167.199,311.473 192.804,294.928C195.335,293.292 212.772,283.005 223.107,275.223Z" style="fill:rgb(253,195,119);"/>
        <path d="M353.718,500.243C364.96,507.72 365.086,507.309 376.484,514.517C378.69,518.625 378.411,527.533 375.505,527.598C347.677,528.219 347.675,527.79 320.595,533.859L319.417,534.19C315.383,535.288 304.123,539.151 301.579,537.386C295.972,533.494 296.16,533.493 291.27,528.714C292.388,526.587 292.285,526.495 292.477,526.416C305.38,521.129 305.779,522.624 318.582,516.683C336.284,508.471 336.148,508.466 353.718,500.243Z" style="fill:rgb(251,196,128);"/>
        <path d="M338.392,548.053C354.712,545.077 399.477,543.215 430.572,548.208C427.254,550.119 426.194,547.682 422.118,551.205C419.454,553.508 418.902,552.645 385.741,575.993C385.686,576.031 385.306,577.513 378.78,573.023C376.961,572.004 367.932,566.947 356.692,559.199C350.943,553.624 350.312,554.681 343.416,550.682C342.056,549.894 341.969,550.642 340.622,550.067C340.401,549.973 340.863,549.66 338.392,548.053Z" style="fill:rgb(252,223,161);"/>
        <path d="M333.615,449.484C335.337,442.717 336.969,443.774 342.223,439.181C345.321,436.472 349.502,431.188 355.394,428.271C363.288,424.364 399.633,425.745 404.524,426.3C423.554,428.46 433.788,447.651 434.4,449.481C430.347,449.738 416.211,440.266 368.493,442.336C350.539,443.115 337.904,449.847 333.615,449.484Z" style="fill:rgb(122,117,140);"/>
        <path d="M447.547,222.549C450.259,224.572 453.011,224.47 453.774,225.17C454.439,225.78 462.499,230.337 463.266,230.771C464.559,231.502 478.227,239.23 480.193,238.397C480.547,238.247 478.411,225.125 481.511,224.106C491.077,220.959 488.159,227.431 488.035,237.471C487.986,241.437 481.227,242.104 480.3,244.378C477.642,250.892 465.47,245.046 471.258,249.174C476.304,252.772 469.875,252.182 453.474,258.669C444.706,261.59 444.758,261.423 436.423,265.322C431.983,268.404 431.352,267.521 431.217,267.579C438.171,251.874 437.034,251.603 442.402,233.476C442.704,232.456 443.598,231.558 443.545,230.496C443.512,229.837 442.214,229.721 442.181,229.062C442.612,228.543 445.294,225.316 447.547,222.549Z" style="fill:rgb(239,163,92);"/>
        <path d="M153.178,145.049C152.383,146.759 152.151,147.257 138.532,163.52C129.967,178.337 132.042,179.09 124.915,194.729C122.57,194.74 122.151,194.297 115.821,200.78C106.849,209.97 106.975,210.44 107.259,211.5C107.441,212.181 108.193,212.841 107.945,213.5C107.694,214.165 106.352,213.907 106.101,214.572C104.056,193.744 103.036,187.666 109.88,166.641C110.643,166.589 111.168,166.553 118.638,162.815C124.096,161.073 123.889,160.869 129.332,159.156C142.603,154.606 140.766,151.385 153.178,145.049Z" style="fill:rgb(232,155,89);"/>
        <path d="M648.495,487.495C647.692,489.627 648.418,489.481 648.931,491.624C643.015,501.245 643.388,501.405 636.231,510.225C634.47,512.395 618.59,526.745 616.457,527.409C610.591,529.233 612.158,531.634 605.42,535.481C604.94,533.739 600.081,516.13 605.766,512.889C615.927,507.096 618.458,507.738 622.312,500.407C628.137,489.324 635.362,481.656 635.523,481.661C636.661,481.689 641.038,481.801 648.495,487.495Z" style="fill:rgb(89,54,52);"/>
        <path d="M564.424,323.576C564.745,323.487 564.393,321.668 569.587,323.16C600.877,332.15 619.508,341.383 622.782,341.454L623.954,343.466C614.989,350.784 616.065,351.71 607.568,359.579C605.691,361.317 605.582,357.601 600.561,358.313C599.487,358.465 599.587,358.405 598.494,358.509C584.243,349.823 578.021,341.366 564.424,323.576Z" style="fill:rgb(239,163,93);"/>
        <path d="M201.752,324.883C193.45,341.423 166.638,361.878 165.924,363.783C163.882,362.505 161.332,360.909 143.711,343.452C145.012,341.267 144.86,341.392 146.312,339.365C148.159,342.645 149.337,340.277 176.497,331.491C197.181,324.799 197.206,324.236 201.752,324.883Z" style="fill:rgb(237,160,91);"/>
        <path d="M477.391,331.608C477.372,331.582 471.858,325.288 475.706,321.711C483.808,314.178 488.119,314.664 499.247,320.962C503.904,323.598 494.141,343.72 477.391,331.608Z" style="fill:rgb(252,252,252);"/>
        <path d="M270.67,319.796C279.63,315.83 282.792,313.267 292.358,321.658C302.261,330.343 272.741,345.776 267.406,323.509C267.138,322.391 270.351,320.03 270.67,319.796Z" style="fill:rgb(252,252,252);"/>
        <path d="M639.676,141.302C650.557,152.36 651.875,154.203 657.504,165.498C655.994,167.893 655.246,166.704 653.655,164.326C653.229,163.689 653.066,163.958 644.452,161.657C632.249,158.397 629.74,148.973 622.577,146.123C634.936,140.327 635.018,140.004 635.5,140.437C637.141,141.91 633.489,142.935 633.354,143.601C632.793,146.362 639.242,141.62 639.676,141.302Z" style="fill:rgb(250,184,110);"/>
        <path d="M122.358,336.441C126.938,341.797 126.098,346.694 125.94,347.62L126.087,348.507C126.409,350.696 126.611,350.537 127.573,352.609C126.538,353.261 116.063,359.866 114.737,360.918C109.174,365.337 113.484,357.981 122.358,336.441Z" style="fill:rgb(187,119,69);"/>
        <path d="M297.305,256.898C297.626,255.975 296.179,255.001 296.5,254.078C296.586,253.831 301.139,252.399 303.569,254.287C309.206,258.668 310.266,256.173 316.488,259.637C315.173,261.779 317,263.624 314.5,263.345C314.3,263.322 314.5,263.345 312.399,264.725C311.183,264.115 303.594,260.31 297.305,256.898Z" style="fill:rgb(234,160,92);"/>
        <path d="M315.415,292.969C317.475,292.733 317.366,293.049 319.423,292.866L320.282,292.853C325.613,295.448 325.446,295.504 330.734,298.092C327.223,303.12 329.332,303.774 327.404,309.567C319.087,301.252 322.947,297.72 316.5,295.124C316.321,295.052 315.859,294.866 315.415,292.969Z" style="fill:rgb(197,120,69);"/>
        <path d="M196.501,148.497C198.337,147.466 202.852,148.587 203.387,148.72C208.261,151.555 208.189,151.421 213.136,153.96C215.275,156.276 213.341,156.707 213.337,156.788C211.981,156.143 200.814,150.833 196.501,148.497Z" style="fill:rgb(221,147,87);"/>
        <path d="M272.561,292.382C275.061,291.873 274.951,291.666 277.519,292.433C275.866,292.416 274.213,292.399 272.561,292.382Z" style="fill:rgb(180,112,68);"/>
        <path d="M391.64,516.393C391.626,516.348 391.638,516.321 391.673,516.311C391.662,516.338 391.651,516.366 391.64,516.393Z" style="fill:rgb(253,200,135);"/>
        <path d="M552.814,201.162C569.84,215.656 569.737,215.524 586.275,230.715C592.387,237.07 592.473,236.792 605.155,251.769C610.889,259.649 619.181,270.345 620.158,272.656C626.614,287.924 625.129,288.421 643.476,331.51C649.997,347.092 650.27,346.776 656.45,362.476L654.579,362.341C648.089,357.75 648.232,357.757 641.611,353.342C627.481,344.717 627.604,343.237 624.59,344.48L623.954,343.466L622.782,341.454C612.675,326.708 612.808,326.784 603.055,311.675L601.579,310.381C582.423,301.399 571.666,293.004 557.151,282.895C546.14,274.843 546.246,274.829 533.83,269.004C521.664,263.006 504.415,253.43 493.421,248.708C490.757,247.564 490.407,247.742 456.613,263.699C453.521,262.128 452.91,262.047 453.474,258.669C469.875,252.182 476.304,252.772 471.258,249.174C465.47,245.046 477.642,250.892 480.3,244.378C481.227,242.104 487.986,241.437 488.035,237.471C488.159,227.431 491.077,220.959 481.511,224.106C478.411,225.125 480.547,238.247 480.193,238.397C478.227,239.23 464.559,231.502 463.266,230.771C462.499,230.337 454.439,225.78 453.774,225.17C453.011,224.47 450.259,224.572 447.547,222.549C452.806,215.746 460.35,207.756 461.518,206.519C468.528,199.464 468.049,198.64 471.463,197.956C470.298,192.318 476.85,190.221 479.098,188.053C485.058,182.305 485.651,183.21 491.561,177.609C494.782,174.557 506.331,187.057 517.731,194.126C532.638,203.369 531.228,208.212 547.551,207.415C551.283,207.233 555.101,209.22 552.352,206.757C549.992,204.643 552.005,202.617 552.814,201.162Z" style="fill:rgb(229,157,91);"/>
        <path d="M495.612,157.186C501.455,159.452 501.349,159.246 506.693,162.191C511.546,165.601 511.634,165.237 527.417,178.6C542.418,191.771 542.405,191.575 552.814,201.162C552.005,202.617 549.992,204.643 552.352,206.757C555.101,209.22 551.283,207.233 547.551,207.415C531.228,208.212 532.638,203.369 517.731,194.126C506.331,187.057 494.782,174.557 491.561,177.609C485.651,183.21 485.058,182.305 479.098,188.053C476.85,190.221 470.298,192.318 471.463,197.956C468.049,198.64 468.528,199.464 461.518,206.519C455.708,205.945 456.305,204.585 453.498,199.502C450.415,193.92 443.001,188.896 437.3,181.586C434.364,177.821 440.55,181.613 493.496,161.49C496.07,159.992 497.093,159.818 495.612,157.186Z" style="fill:rgb(253,210,142);"/>
        <path d="M495.612,157.186C497.093,159.818 496.07,159.992 493.496,161.49C440.55,181.613 434.364,177.821 437.3,181.586C443.001,188.896 450.415,193.92 453.498,199.502C456.305,204.585 455.708,205.945 461.518,206.519C460.35,207.756 452.806,215.746 447.547,222.549C445.294,225.316 442.612,228.543 442.181,229.062C440.037,231.888 426.26,250.05 415.084,264.161C411.045,269.26 410.852,268.935 407.558,274.561L407.253,275.3L406.767,276.67C406.83,278.578 406.348,278.512 404.55,278.559C402.203,278.126 384.775,264.774 384.149,262.745L382.554,263.554C379.535,267.088 370.577,269.356 365.789,274.787C362.25,278.802 362.715,280.14 359.752,279.509C360.139,268.955 310.571,212.716 306.285,206.812C315.827,195.821 329.355,181.741 329.389,180.532C329.451,178.365 275.247,165.491 266.579,159.722C271.9,157.817 310.765,143.904 335.499,144.21C380.23,144.764 378.199,163.434 386.167,158.012C415.372,138.137 441.223,139.496 495.612,157.186ZM381.705,252.415C383.44,255.267 383.477,256.387 384.192,255.222C384.682,254.422 406.11,206.516 408.006,202.276C408.722,200.675 420.156,175.114 409.449,180.404C399.932,185.106 386.999,195.592 385.169,197.076C381.664,199.918 351.631,171.197 353.199,182.539C355.781,201.209 358.509,200.341 381.705,252.415Z" style="fill:rgb(252,189,113);"/>
        <path d="M657.504,165.498C674.699,214.942 649.536,245.335 643.944,252.896C641.571,251.187 641.631,251.21 640.118,248.796C643.847,245.385 640.998,244.495 641.684,239.56C642.141,236.278 640.392,237.073 640.017,236.351C646.03,215.446 645.495,215.132 641.09,191.745L640.81,191.32C636.428,182.737 633.99,172.782 631.572,166.469C627.446,155.691 618.886,149.642 616.432,146.578L622.577,146.123C629.74,148.973 632.249,158.397 644.452,161.657C653.066,163.958 653.229,163.689 653.655,164.326C655.246,166.704 655.994,167.893 657.504,165.498Z" style="fill:rgb(227,149,85);"/>
        <path d="M575.756,135.87C581.796,130.211 583.231,130.164 589.492,135.557L591.47,135.7C599.537,137.022 599.462,136.784 607.521,136.274C607.503,136.54 608.582,137.445 606.337,139.288C603.243,139.484 602.85,139.145 601.423,141.858C599.806,141.906 592.192,135.929 550.559,158.578C550.485,154.057 552.547,154.897 555.954,148.824C558.073,145.045 567.386,145.452 575.448,136.438L575.756,135.87Z" style="fill:rgb(238,163,95);"/>
        <path d="M426.229,603.386C416.491,627.292 415.105,626.554 387.971,662.875C381.479,671.565 380.413,663.464 374.112,654.769C358.785,633.62 355.638,635.735 345.047,611.718C342.166,605.184 342.11,605.334 340.497,602.503L339.561,602.819C332.842,609.141 334.438,610.763 326.595,615.652C315.539,622.544 309.782,628.817 307.302,631.229C304.029,633.829 303.531,635.848 302.39,633.601C284.853,599.055 283.594,599.836 265.779,565.362C262.892,559.776 263.668,559.406 263.64,559.31C276.227,558.964 276.278,558.031 291.527,562.158C291.703,562.206 291.527,562.158 293.704,561.456C293.924,561.695 303.327,568.148 310.859,577.178C314.107,581.072 316.005,579.409 320.632,588.096C323.215,592.945 330.648,584.204 330.745,584.137C340.091,590.387 344.137,595.326 367.64,600.153C395.51,600.779 396.011,603.446 422.433,594.321C426.63,597.73 426.401,598.104 426.229,603.386Z" style="fill:rgb(96,58,53);"/>
        <path d="M351.56,312.692C369.903,313.722 373.904,311.896 385.51,312.196C399.663,312.563 399.48,313.564 414.49,313.562L415.497,313.513L420.411,314.632C430.463,322.668 430.233,322.741 440.165,330.898C442.554,332.945 442.196,333.327 446.534,335.482C450.031,345.511 498.194,450.405 480.726,521.575C479.081,525.507 479.399,525.497 476.978,528.919C474.047,523.515 472.722,525.162 464.715,522.039C452.353,517.218 452.813,516.524 440.515,511.466C426.995,505.906 426.894,506.52 413.264,501.186C447.564,476.96 446.301,461.129 447.172,457.431C449.014,445.489 450.211,445.033 445.029,435.835L435.104,423.901C425.896,415.627 421.63,410.696 400.505,410.184C364.596,409.314 356.323,410.989 352.561,411.751C341.013,415.167 341.849,416.614 332.903,424.908C323.933,435.968 321.496,434.724 319.934,444.568C317.198,461.81 329.143,476.853 330.947,479.125L335.651,484.357C344.544,492.509 344.394,492.525 353.718,500.243C336.148,508.466 336.284,508.471 318.582,516.683C305.779,522.624 305.38,521.129 292.477,526.416C292.285,526.495 292.388,526.587 291.27,528.714C290.278,527.217 284.529,518.538 283.97,507.481C280.115,431.235 309.887,365.759 319.271,343.407C319.666,342.208 319.643,342.33 322.584,334.548C324.598,333.956 324.369,333.668 327.324,331.286L330.119,329.069C343.64,317.775 346.267,314.312 351.56,312.692Z" style="fill:rgb(253,229,174);"/>
        <path d="M656.844,403.431C663.362,419.583 663.308,419.529 667.248,436.517C667.795,438.877 664.502,437.258 664.25,440.472C658.997,507.393 660.697,544.454 655.593,542.251C654.296,541.691 638.818,534.051 637.743,535.712C631.212,545.804 616.733,571.772 614.965,574.941C612.176,573.425 612.958,572.693 606.164,542.584C605.363,539.037 605.211,539.206 605.42,535.481C612.158,531.634 610.591,529.233 616.457,527.409C618.59,526.745 634.47,512.395 636.231,510.225C643.388,501.405 643.015,501.245 648.931,491.624C648.418,489.481 647.692,489.627 648.495,487.495C648.506,483.972 643.387,463.571 642.287,458.531C632.491,412.165 629.279,412.83 628.446,399.803C635.034,400.026 634.901,400.247 641.423,400.945C654.568,404.166 655.654,403.815 656.844,403.431Z" style="fill:rgb(104,61,54);"/>
        <path d="M523.54,540.561C519.91,543.342 511.296,548.902 505.921,555.689C505.745,557.939 505.982,557.86 505.064,560.006C486.265,555.889 476.816,563.451 475.479,563.003C474.808,562.778 474.944,561.481 474.273,561.256C483.766,557.693 483.897,558.454 492.825,553.983C493.837,553.154 495.095,552.124 504.068,542.115C508.038,545.963 508.511,543.121 512.69,539.636C516.924,536.105 517.256,533.511 521.438,536.985C521.659,537.233 522.79,538.5 523.54,540.561Z" style="fill:rgb(216,137,83);"/>
        <path d="M605.317,393.53C606.434,395.539 616.447,413.551 617.739,419.449C619.299,426.574 612.629,450.46 608.443,466.484C605.241,478.41 604.278,477.991 595.321,486.291L592.181,489.148C583.55,496.941 562.588,512.655 562.117,513.011C556.514,516.994 543.664,526.695 528.309,537.234L523.54,540.561C522.79,538.5 521.659,537.233 521.438,536.985C517.256,533.511 516.924,536.105 512.69,539.636C508.511,543.121 508.038,545.963 504.068,542.115C512.459,531.926 512.228,531.913 520.707,521.659C529.258,511.647 529.087,511.596 529.942,510.845C536.264,505.296 526.892,509.723 506.606,514.98C504.109,512.976 506.972,513.021 510.541,511.572C513.586,510.336 513.289,509.838 516.564,509.588L519.588,508.906C526.324,507.831 525.855,506.358 532.642,505.808L533.599,505.643C535.405,503.944 535.408,504.094 537.249,502.32L537.694,501.538C536.579,500.177 536.519,500.542 534.787,500.009C531.945,499.135 537.082,497.296 537.37,497.193C547.473,493.576 591.726,473.263 595.281,470.218C602.679,463.881 597.307,461.784 569.061,370.58C570.813,368.551 571.207,370.008 588.315,376.854L597.309,384.718C603.178,390.528 603.644,390.102 605.317,393.53Z" style="fill:rgb(237,157,91);"/>
        <path d="M656.844,403.431C655.654,403.815 654.568,404.166 641.423,400.945C634.901,400.247 635.034,400.026 628.446,399.803C608.153,396.225 609.175,390.879 605.379,392.453C605.047,392.591 605.649,393.392 605.317,393.53C603.644,390.102 603.178,390.528 597.309,384.718L588.315,376.854C589.918,373.834 590.256,373.851 589.68,373.414C584.86,369.756 591.287,371.484 591.488,371.539C590.167,368.049 591.891,367.883 595.475,368.398C602.326,369.383 599.182,365.362 598.494,358.509C599.587,358.405 599.487,358.465 600.561,358.313C605.582,357.601 605.691,361.317 607.568,359.579C616.065,351.71 614.989,350.784 623.954,343.466L624.59,344.48C633.713,361.211 632.929,361.476 641.768,378.362C648.59,391.396 649.6,390.678 656.844,403.431Z" style="fill:rgb(212,135,75);"/>
        <path d="M568.428,127.318C585.959,122.107 609.057,116.306 639.676,141.302C639.242,141.62 632.793,146.362 633.354,143.601C633.489,142.935 637.141,141.91 635.5,140.437C635.018,140.004 634.936,140.327 622.577,146.123L616.432,146.578C610.136,141.459 609.38,143.289 601.423,141.858C602.85,139.145 603.243,139.484 606.337,139.288C608.582,137.445 607.503,136.54 607.521,136.274C599.462,136.784 599.537,137.022 591.47,135.7L589.492,135.557C583.231,130.164 581.796,130.211 575.756,135.87L575.448,136.438C567.386,145.452 558.073,145.045 555.954,148.824C552.547,154.897 550.485,154.057 550.559,158.578C545.839,161.977 545.929,161.898 541.41,165.7L539.134,163.973C533.057,158.224 530.374,158.308 532.814,155.748C556.327,131.078 563.271,129.835 568.428,127.318Z" style="fill:rgb(250,192,119);"/>
        <path d="M359.752,279.509C362.715,280.14 362.25,278.802 365.789,274.787C370.577,269.356 379.535,267.088 382.554,263.554L384.149,262.745C384.775,264.774 402.203,278.126 404.55,278.559C406.348,278.512 406.83,278.578 406.767,276.67L407.253,275.3L407.558,274.561C410.852,268.935 411.045,269.26 415.084,264.161C426.26,250.05 440.037,231.888 442.181,229.062C442.214,229.721 443.512,229.837 443.545,230.496C443.598,231.558 442.704,232.456 442.402,233.476C437.034,251.603 438.171,251.874 431.217,267.579C431.352,267.521 431.983,268.404 436.423,265.322C444.758,261.423 444.706,261.59 453.474,258.669C452.91,262.047 453.521,262.128 456.613,263.699C437.775,276.352 437.415,275.733 435.819,276.889C435.032,277.459 427.46,294.794 426.772,296.369C420.967,292.999 409.008,281.522 410.277,288.522C412.584,301.247 412.959,300.968 415.497,313.513L414.49,313.562C399.48,313.564 399.663,312.563 385.51,312.196C373.904,311.896 369.903,313.722 351.56,312.692C355.352,299.292 354.727,299.3 357.565,285.479C357.715,284.993 358.771,281.574 359.752,279.509Z" style="fill:rgb(215,138,75);"/>
        <path d="M476.978,528.919C476.382,529.468 468.783,539.248 462.439,537.734C427.863,529.48 427.974,528.381 392.492,527.598C390.792,527.561 391.454,526.692 390.732,520.503C390.935,518.808 391.206,517.494 391.64,516.393C391.651,516.366 391.662,516.338 391.673,516.311C393.537,511.71 398.345,510.843 413.264,501.186C426.894,506.52 426.995,505.906 440.515,511.466C452.813,516.524 452.353,517.218 464.715,522.039C472.722,525.162 474.047,523.515 476.978,528.919Z" style="fill:rgb(251,195,129);"/>
        <path d="M338.392,548.053C340.863,549.66 340.401,549.973 340.622,550.067C341.969,550.642 342.056,549.894 343.416,550.682C350.312,554.681 350.943,553.624 356.692,559.199C367.932,566.947 376.961,572.004 378.78,573.023C385.306,577.513 385.686,576.031 385.741,575.993C418.902,552.645 419.454,553.508 422.118,551.205C426.194,547.682 427.254,550.119 430.572,548.208C444.466,551.493 445.112,552.502 444.287,553.334C429.806,567.934 416.906,575.518 414.266,577.07C387.024,587.604 357.517,582.272 341.882,569.036C340.461,567.834 328.501,557.71 324.736,553.323C323.973,552.434 324.531,551.324 338.392,548.053Z" style="fill:rgb(250,197,131);"/>
        <path d="M239.275,511.604C241.816,510.625 241.895,511.361 265.513,516.506L265.355,517.422C271.699,532.465 270.694,533.245 282.276,544.803L281.653,545.092L279.394,547.522L278.553,546.494C269.369,544.987 270.095,543.11 270.476,542.498C270.503,542.455 271.663,541.89 272.261,540.334C273.305,537.619 271.453,537.782 271.299,537.299C269.669,539.934 267.156,542.376 266.282,544.681L263.93,542.114L263.031,540.903L261.71,539.342L258.592,535.427C255.257,531.18 248.896,523.671 239.275,511.604Z" style="fill:rgb(65,42,44);"/>
        <path d="M293.704,561.456C288.743,557.89 288.38,558.996 282.488,557.533C274.143,555.461 270.474,549.566 270.452,549.543L269.529,548.475L266.282,544.681C267.156,542.376 269.669,539.934 271.299,537.299C271.453,537.782 273.305,537.619 272.261,540.334C271.663,541.89 270.503,542.455 270.476,542.498C270.095,543.11 269.369,544.987 278.553,546.494L279.394,547.522L281.653,545.092L282.276,544.803C291.463,551.445 291.209,551.706 301.34,556.797C306.02,559.149 303.704,562.874 308.673,566.164C320.56,574.035 319.592,575.076 330.745,584.137C330.648,584.204 323.215,592.945 320.632,588.096C316.005,579.409 314.107,581.072 310.859,577.178C303.327,568.148 293.924,561.695 293.704,561.456Z" style="fill:rgb(74,47,48);"/>
        <path d="M588.315,376.854C571.207,370.008 570.813,368.551 569.061,370.58C597.307,461.784 602.679,463.881 595.281,470.218C591.726,473.263 547.473,493.576 537.37,497.193C537.082,497.296 531.945,499.135 534.787,500.009C536.519,500.542 536.579,500.177 537.694,501.538L537.249,502.32C535.408,504.094 535.405,503.944 533.599,505.643L532.642,505.808C525.855,506.358 526.324,507.831 519.588,508.906L516.564,509.588C513.289,509.838 513.586,510.336 510.541,511.572C506.972,513.021 504.109,512.976 506.606,514.98L502.745,516.242C501.388,462.259 506.919,439.106 475.98,359.327C472.227,349.648 467.596,344.186 473.691,347.033C489.449,354.391 504.415,346.274 511.2,335.303C516.451,326.814 517.999,328.564 527.63,325.981C530.856,325.065 532.454,326.128 532.206,322.751C521.8,314.928 521.718,315.263 510.273,308.929L499.578,304.28C481.956,299.049 480.728,299.07 465.679,309.726L454.624,319.627C449.882,324.947 449.597,324.694 447.105,331.418L446.534,335.482C442.196,333.327 442.554,332.945 440.165,330.898C430.233,322.741 430.463,322.668 420.411,314.632L415.497,313.513C412.959,300.968 412.584,301.247 410.277,288.522C409.008,281.522 420.967,292.999 426.772,296.369C435.045,303.813 435.984,296.894 453.384,291.233C475.571,284.015 499.8,272.825 519.5,273.396C524.757,273.549 545.075,298.433 547.043,300.842C548.439,302.656 559.161,316.592 564.424,323.576C578.021,341.366 584.243,349.823 598.494,358.509C599.182,365.362 602.326,369.383 595.475,368.398C591.891,367.883 590.167,368.049 591.488,371.539C591.287,371.484 584.86,369.756 589.68,373.414C590.256,373.851 589.918,373.834 588.315,376.854Z" style="fill:rgb(168,99,63);"/>
        <path d="M226.565,165.826C219.909,161.26 220.547,160.607 213.337,156.788C213.341,156.707 215.275,156.276 213.136,153.96C208.189,151.421 208.261,151.555 203.387,148.72C196.898,139.183 195.29,140.722 188.311,131.707C185.276,127.787 183.12,133.497 176.531,133.646C174.008,132.593 174.115,132.241 172.498,132.417C155.582,134.256 153.459,133.995 154.729,136.37L156.29,137.509C158.014,138.447 157.974,138.303 159.716,137.668C160.099,137.945 159.578,138.788 159.96,139.064C162.21,140.689 162.656,139.876 164.518,141.868C158.48,142.559 158.603,142.514 153.178,145.049C140.766,151.385 142.603,154.606 129.332,159.156C123.889,160.869 124.096,161.073 118.638,162.815C111.168,166.553 110.643,166.589 109.88,166.641C111.068,164.303 119.051,148.599 129.076,140.061C135.347,135.602 134.724,134.644 148.452,128.382C173.948,120.524 188.087,120.367 210.527,133.468C218.617,139.551 218.439,139.491 225.884,146.104C228.41,148.605 237.381,155.827 235.063,158.109C228.044,165.017 227.371,165.386 226.565,165.826Z" style="fill:rgb(250,191,117);"/>
        <path d="M138.837,252.743C133.116,260.034 133.254,260.232 132.497,260.494C130.8,261.081 130.983,260.2 126.204,255.837C110.274,238.371 108.538,227.172 106.101,214.572C106.352,213.907 107.694,214.165 107.945,213.5C108.193,212.841 107.441,212.181 107.259,211.5C106.975,210.44 106.849,209.97 115.821,200.78C122.151,194.297 122.57,194.74 124.915,194.729C123.118,210.542 118.808,223.237 135.035,249.741C135.245,250.066 136.283,251.676 138.837,252.743Z" style="fill:rgb(203,127,71);"/>
        <path d="M138.837,252.743C136.283,251.676 135.245,250.066 135.035,249.741C118.808,223.237 123.118,210.542 124.915,194.729C132.042,179.09 129.967,178.337 138.532,163.52C152.151,147.257 152.383,146.759 153.178,145.049C158.603,142.514 158.48,142.559 164.518,141.868C181.109,141.751 181.233,141.901 196.501,148.497C200.814,150.833 211.981,156.143 213.337,156.788C220.547,160.607 219.909,161.26 226.565,165.826C222.903,169.651 216.05,176.13 215.12,177.01C213.882,177.324 214.033,177.292 212.77,177.086L208.375,173.692L203.724,171.098C180.714,158.747 179.553,158.46 154.424,165.263C149.883,167.11 147.175,165.435 141.837,181.606C133.929,205.561 144.264,225.408 146.013,228.767C150.269,235.698 151.513,237.232 150.001,239.091C144.396,245.982 144.413,245.827 138.837,252.743Z" style="fill:rgb(159,91,58);"/>
        <path d="M140.76,343.966L136.717,346.822L127.573,352.609C126.611,350.537 126.409,350.696 126.087,348.507C131.03,346.685 128.173,344.462 131.072,340.172L132.328,338.39C133.746,335.813 133.721,335.82 133.86,335.607C133.948,335.471 134.21,335.532 134.298,335.396C135.31,336.909 139.725,340.282 140.76,343.966Z" style="fill:rgb(205,124,65);"/>
        <path d="M140.76,343.966C139.725,340.282 135.31,336.909 134.298,335.396C134.21,335.532 133.948,335.471 133.86,335.607C133.721,335.82 133.746,335.813 132.328,338.39L131.072,340.172C128.173,344.462 131.03,346.685 126.087,348.507L125.94,347.62C126.098,346.694 126.938,341.797 122.358,336.441C148.032,274.603 147.041,274.157 150.182,269.261L151.932,266.822C177.448,231.356 188.583,224.076 197.056,217.116C197.683,217.148 197.849,218.322 198.476,218.354C200.622,218.463 200.353,217.822 224.543,211.839C230.539,210.467 298.066,195.023 300.299,198.712C302.939,203.073 302.999,202.835 306.285,206.812C310.571,212.716 360.139,268.955 359.752,279.509C358.771,281.574 357.715,284.993 357.565,285.479C348.456,289.769 349.723,291.515 340.838,296.57C337.866,289.913 337.18,290.39 334.546,283.482C333.012,279.459 334.958,276.966 312.399,264.725C314.5,263.345 314.3,263.322 314.5,263.345C317,263.624 315.173,261.779 316.488,259.637C310.266,256.173 309.206,258.668 303.569,254.287C301.139,252.399 296.586,253.831 296.5,254.078C296.179,255.001 297.626,255.975 297.305,256.898C287.358,252.77 287.844,251.927 277.451,248.686C272.83,247.245 224.508,274.073 223.107,275.223C212.772,283.005 195.335,293.292 192.804,294.928C167.199,311.473 165.487,309.121 164.251,311.453C156.861,325.394 156.365,324.924 146.312,339.365C144.86,341.392 145.012,341.267 143.711,343.452C142.233,342.864 142.274,343.203 140.76,343.966Z" style="fill:rgb(227,151,85);"/>
        <path d="M143.711,343.452C161.332,360.909 163.882,362.505 165.924,363.783C166.638,361.878 193.45,341.423 201.752,324.883C204.136,322.482 207.054,318.122 208.414,316.432C209.415,315.188 209.39,315.193 220.846,300.82C222.055,299.319 228.997,290.699 236.611,282.598C247.885,270.603 250.31,271.292 276.547,279.335C273.149,283.555 275.117,284.245 273.542,289.721C272.024,290.481 272.336,290.694 272.561,292.382L277.519,292.433C279.344,293.133 279.358,292.869 280.868,294.056C286.345,299.12 284.745,299.922 284.506,300.904C280.524,301.181 265.028,302.261 238.766,320.849C235.975,322.825 234.465,324.108 237.605,325.199C242.841,327.018 252.08,328.612 253.487,330.511C257.815,336.357 264.512,351.107 284.547,349.841C291.866,353.747 291.738,354.089 291.5,354.726C291.493,354.746 267.33,370.398 266.235,371.017C255.477,377.107 253.511,376.539 251.567,376.275C248.312,366.461 242.938,361.553 236.582,335.487L235.826,329.455C235.011,326.984 235.157,327.008 233.3,325.235C229.042,328.54 229.064,328.487 228.709,328.786L223.451,332.446C208.994,343.41 208.191,343.322 202.271,360.428C201.441,362.827 170.547,460.279 169.873,462.584C169.148,465.063 172.815,465.955 175.841,468.192C171.68,470.549 170.629,469.947 170.792,472.496C171.16,478.248 171.048,478.39 167.268,482.75C162.704,478.11 161.695,478.789 159.97,472.38C156.057,457.835 152.446,439.313 151.882,436.419C147.35,413.171 152.5,413.529 163.169,392.422C165.702,387.411 159.696,395.514 140.404,400.125C112.427,402.306 112.752,404.586 110.321,404.526C110.902,402.736 110.817,402.861 110.902,402.736C119.72,389.713 119.788,389.986 127.612,376.552C128.835,373.874 138.85,351.939 143.711,343.452Z" style="fill:rgb(210,134,75);"/>
        <path d="M284.547,349.841C298.526,346.219 298.997,344.317 299.121,345.527C299.272,346.991 283.438,367.292 270.272,433.464L270.022,435.426C268.001,436.594 268.783,438.031 266.483,437.758C252.759,441.096 240.47,448.059 204.474,457.056C203.639,454.961 204.118,454.51 204.275,454.361C232.063,428.132 251.041,386.785 250.565,377.596L251.567,376.275C253.511,376.539 255.477,377.107 266.235,371.017C267.33,370.398 291.493,354.746 291.5,354.726C291.738,354.089 291.866,353.747 284.547,349.841Z" style="fill:rgb(131,75,55);"/>
        <path d="M251.567,376.275L250.565,377.596C251.041,386.785 232.063,428.132 204.275,454.361C204.118,454.51 203.639,454.961 204.474,457.056C240.47,448.059 252.759,441.096 266.483,437.758C268.783,438.031 268.001,436.594 270.022,435.426C269.376,439.165 263.003,460.604 265.513,516.506C241.895,511.361 241.816,510.625 239.275,511.604C231.625,507.8 227.839,504.843 226.929,504.133C228.536,497.425 216.983,494.546 199.614,486.274C186.615,478.858 179.999,477.428 175.841,468.192C172.815,465.955 169.148,465.063 169.873,462.584C170.547,460.279 201.441,362.827 202.271,360.428C208.191,343.322 208.994,343.41 223.451,332.446L228.709,328.786C229.064,328.487 229.042,328.54 233.3,325.235C235.157,327.008 235.011,326.984 235.826,329.455L236.582,335.487C242.938,361.553 248.312,366.461 251.567,376.275Z" style="fill:rgb(159,91,58);"/>
        <path d="M263.64,559.31C258.019,548.035 253.429,547.13 241.734,540.126C210.336,519.502 204.476,514.662 176.668,491.304C172.24,487.387 172.266,487.415 171.886,487.074C169.437,484.871 169.619,484.866 167.268,482.75C171.048,478.39 171.16,478.248 170.792,472.496C170.629,469.947 171.68,470.549 175.841,468.192C179.999,477.428 186.615,478.858 199.614,486.274C216.983,494.546 228.536,497.425 226.929,504.133C227.839,504.843 231.625,507.8 239.275,511.604C248.896,523.671 255.257,531.18 258.592,535.427L261.71,539.342L263.031,540.903L263.93,542.114L266.282,544.681L269.529,548.475L270.452,549.543C270.474,549.566 274.143,555.461 282.488,557.533C288.38,558.996 288.743,557.89 293.704,561.456C291.527,562.158 291.703,562.206 291.527,562.158C276.278,558.031 276.227,558.964 263.64,559.31Z" style="fill:rgb(230,149,84);"/>
        <path d="M272.561,292.382C272.336,290.694 272.024,290.481 273.542,289.721C275.117,284.245 273.149,283.555 276.547,279.335C278.132,279.819 287.069,281.773 315.415,292.969C315.859,294.866 316.321,295.052 316.5,295.124C322.947,297.72 319.087,301.252 327.404,309.567C329.332,303.774 327.223,303.12 330.734,298.092C336.324,301.128 337.987,302.277 340.838,296.57C349.723,291.515 348.456,289.769 357.565,285.479C354.727,299.3 355.352,299.292 351.56,312.692C346.267,314.312 343.64,317.775 330.119,329.069L327.324,331.286C324.369,333.668 324.598,333.956 322.584,334.548C318.231,322.167 314.206,320.344 305.702,312.266C301.729,309.107 301.834,309.259 297.631,306.3C291.388,302.775 291.629,302.256 284.506,300.904C284.745,299.922 286.345,299.12 280.868,294.056C279.358,292.869 279.344,293.133 277.519,292.433C274.951,291.666 275.061,291.873 272.561,292.382Z" style="fill:rgb(167,97,59);"/>
        <path d="M276.547,279.335C250.31,271.292 247.885,270.603 236.611,282.598C228.997,290.699 222.055,299.319 220.846,300.82C214.696,296.489 224.071,285.924 223.107,275.223C224.508,274.073 272.83,247.245 277.451,248.686C287.844,251.927 287.358,252.77 297.305,256.898C303.594,260.31 311.183,264.115 312.399,264.725C334.958,276.966 333.012,279.459 334.546,283.482C337.18,290.39 337.866,289.913 340.838,296.57C337.987,302.277 336.324,301.128 330.734,298.092C325.446,295.504 325.613,295.448 320.282,292.853L319.423,292.866C317.366,293.049 317.475,292.733 315.415,292.969C287.069,281.773 278.132,279.819 276.547,279.335Z" style="fill:rgb(253,217,151);"/>
        <path d="M176.531,133.646C183.12,133.497 185.276,127.787 188.311,131.707C195.29,140.722 196.898,139.183 203.387,148.72C202.852,148.587 198.337,147.466 196.501,148.497C181.233,141.901 181.109,141.751 164.518,141.868C162.656,139.876 162.21,140.689 159.96,139.064C159.578,138.788 160.099,137.945 159.716,137.668C157.974,138.303 158.014,138.447 156.29,137.509L154.729,136.37C153.459,133.995 155.582,134.256 172.498,132.417C174.115,132.241 174.008,132.593 176.531,133.646Z" style="fill:rgb(248,177,106);"/>
        <path d="M643.944,252.896L641.962,254.997C641.186,255.669 636.32,260.987 634.414,259.62C633.445,258.925 633.555,258.813 624.179,246.743C618.459,239.494 615.617,239.749 617.956,235.732C635.656,205.332 630.276,191.909 620.025,169.787C617.238,166.68 615.856,161.762 589.497,161.267C586.618,161.213 579.053,161.071 556.334,175.255C555.131,176.006 551.187,178.468 541.41,165.7C545.929,161.898 545.839,161.977 550.559,158.578C592.192,135.929 599.806,141.906 601.423,141.858C609.38,143.289 610.136,141.459 616.432,146.578C618.886,149.642 627.446,155.691 631.572,166.469C633.99,172.782 636.428,182.737 640.81,191.32L641.09,191.745C645.495,215.132 646.03,215.446 640.017,236.351C640.392,237.073 642.141,236.278 641.684,239.56C640.998,244.495 643.847,245.385 640.118,248.796C641.631,251.21 641.571,251.187 643.944,252.896Z" style="fill:rgb(164,95,59);"/>
        <path d="M460.706,631.021C458.299,633.666 449.416,643.428 420.513,650.574C418.844,650.987 419.109,650.371 417.783,649.373L416.26,646.534L416.329,643.501C425.01,622.142 441.204,603.714 426.229,603.386C426.401,598.104 426.63,597.73 422.433,594.321C460.183,573.526 458.138,557.298 473.48,556.177C475.724,556.013 474.857,554.062 476.237,551.245C480.554,548.161 480.463,548.183 482.132,547.092C494.841,539.337 498.098,529.713 502.745,516.242L506.606,514.98C526.892,509.723 536.264,505.296 529.942,510.845C529.087,511.596 529.258,511.647 520.707,521.659C512.228,531.913 512.459,531.926 504.068,542.115C495.095,552.124 493.837,553.154 492.825,553.983C483.897,558.454 483.766,557.693 474.273,561.256C473.101,562.398 471.78,565.133 466.51,569.512C456.527,577.808 448.797,587.689 444.773,590.782L442.582,592.624C441.507,596.733 440.79,596.225 439.05,600.215C438.788,600.818 438.575,600.574 435.164,607.458C430.895,616.073 440.026,612.408 460.706,631.021Z" style="fill:rgb(65,43,47);"/>
        <g>
            <path d="M676.045,556.43C675.698,558.329 674.183,572.174 671.643,571.082C651.606,562.464 650.279,559.415 647.808,563.687C629.324,595.653 632.563,601.102 619.466,602.103C594.918,603.979 595.215,600.904 590.527,599.414C586.54,598.148 569.499,616.814 559.584,620.688C558.367,621.163 549.455,628.538 543.443,630.316C507.846,640.847 505.909,642.283 482.55,655.624C480.243,656.942 479.405,646.954 477.618,647.879C453.97,660.125 438.792,674.078 437.285,669.597C434.689,661.874 432.025,667.37 424.458,670.397C415.206,674.097 414.978,675.732 410.213,672.966C402.114,668.266 392.348,701.357 372.563,683.429C360.558,672.55 360.58,671.024 358.378,672.261C351.947,675.875 351.481,673.857 333.496,666.514C330.049,665.107 334.185,671.594 330.527,671.356C326.285,671.08 289.997,643.773 288.17,649.364C287.992,649.909 285.927,656.227 284.496,655.511C263.361,644.943 263.478,645.042 241.68,636.033C208.28,622.229 201.497,608.507 192.216,615.131C180.434,623.54 170.066,597.083 155.484,598.31C149.124,598.845 137.688,601.453 136.208,597.62C135.011,594.517 121.736,560.123 116.568,560.98C112.757,561.612 95.037,574.059 94.087,569.624C84.422,524.473 84.801,459.547 84.633,459.375C83.469,458.185 76.226,461.822 76.981,455.555C79.704,432.924 80.026,432.511 81.82,431.768C82.04,431.677 87.603,429.374 83.534,429.349C71.439,429.278 95.241,387.54 92.494,387.521C81.357,387.445 81.4,387.947 80.441,387.846C77.968,387.586 79.876,385.802 120.759,287.611C122.909,282.447 126.333,281.556 121.776,278.11C56.137,228.479 78.607,106.363 173.499,103.466C223.704,101.934 249.005,145.232 253.525,143.621C269.702,137.854 335.154,108.405 382.722,135.072C388.654,138.397 402.974,109.366 487.412,133.79C506.4,139.282 514.314,144.486 517.097,142.047C521.4,138.275 566.616,81.864 631.299,111.952C694.365,141.287 701.422,233.511 646.897,276.999C638.808,283.451 645.88,284.774 649.932,294.308C659.945,317.871 659.876,317.743 669.834,341.365C688.301,385.171 691.573,387.82 687.592,387.855C679.116,387.929 672.162,384.115 676.205,391.649C691.409,419.983 688.714,432.994 686.498,432.473C681.086,431.2 686.18,434.434 687.204,436.638C687.695,437.694 693.438,459.647 689.499,459.467C684.43,459.237 682.715,457.398 682.719,460.515C682.754,485.185 683.998,503.618 676.045,556.43ZM106.101,214.572C108.538,227.172 110.274,238.371 126.204,255.837C130.983,260.2 130.8,261.081 132.497,260.494C133.254,260.232 133.116,260.034 138.837,252.743C144.413,245.827 144.396,245.982 150.001,239.091C151.513,237.232 150.269,235.698 146.013,228.767C144.264,225.408 133.929,205.561 141.837,181.606C147.175,165.435 149.883,167.11 154.424,165.263C179.553,158.46 180.714,158.747 203.724,171.098L208.375,173.692L212.77,177.086C214.033,177.292 213.882,177.324 215.12,177.01C216.05,176.13 222.903,169.651 226.565,165.826C227.371,165.386 228.044,165.017 235.063,158.109C237.381,155.827 228.41,148.605 225.884,146.104C218.439,139.491 218.617,139.551 210.527,133.468C188.087,120.367 173.948,120.524 148.452,128.382C134.724,134.644 135.347,135.602 129.076,140.061C119.051,148.599 111.068,164.303 109.88,166.641C103.036,187.666 104.056,193.744 106.101,214.572ZM541.41,165.7C551.187,178.468 555.131,176.006 556.334,175.255C579.053,161.071 586.618,161.213 589.497,161.267C615.856,161.762 617.238,166.68 620.025,169.787C630.276,191.909 635.656,205.332 617.956,235.732C615.617,239.749 618.459,239.494 624.179,246.743C633.555,258.813 633.445,258.925 634.414,259.62C636.32,260.987 641.186,255.669 641.962,254.997L643.944,252.896C649.536,245.335 674.699,214.942 657.504,165.498C651.875,154.203 650.557,152.36 639.676,141.302C609.057,116.306 585.959,122.107 568.428,127.318C563.271,129.835 556.327,131.078 532.814,155.748C530.374,158.308 533.057,158.224 539.134,163.973L541.41,165.7ZM106.16,479.512C106.72,491.935 108.41,543.511 111.514,542.589C121.83,539.525 126.915,531.15 131.972,539.204C139.815,551.694 139.653,551.584 146.954,564.246C150.227,570.31 150.1,570.197 152.681,576.43C157.256,584.641 168.808,570.235 181.567,585.435C186.14,590.883 185.71,584.448 187.485,583.474C189.267,582.495 220.987,602.83 237.401,610.947C232.463,586.947 232.127,587.132 225.796,563.453C223.054,553.2 225.465,552.029 219.614,546.131C214.363,540.838 194.486,528.813 192.186,526.895C179.872,516.629 154.827,506.065 159.331,488.549C157.796,483.881 156.08,483.809 158.336,479.439C159.118,477.923 157.466,471.199 157.295,470.5C156.891,468.858 156.593,469.252 154.302,467.504C154.404,473.368 153.914,473.675 155.335,474.609C155.734,474.872 154.961,474.94 154.389,480.509C156.73,497.072 152.034,499.446 161.582,507.27C163.573,508.902 161.659,508.952 159.532,510.454C168.471,516.89 165.5,523.079 163.297,535.491L162.79,537.41C162.202,536.938 158.266,533.778 155.352,531.614C156.318,530.38 157.695,528.619 156.881,512.088C156.84,511.249 151.855,510.827 148.527,505.477C147.561,503.923 139.137,490.379 137.243,485.588C133.402,475.877 123.995,486.22 121.49,486.462C115.961,486.996 138.756,405.69 140.404,400.125C159.696,395.514 165.702,387.411 163.169,392.422C152.5,413.529 147.35,413.171 151.882,436.419C152.446,439.313 156.057,457.835 159.97,472.38C161.695,478.789 162.704,478.11 167.268,482.75C169.619,484.866 169.437,484.871 171.886,487.074C172.266,487.415 172.24,487.387 176.668,491.304C204.476,514.662 210.336,519.502 241.734,540.126C253.429,547.13 258.019,548.035 263.64,559.31C263.668,559.406 262.892,559.776 265.779,565.362C283.594,599.836 284.853,599.055 302.39,633.601C303.531,635.848 304.029,633.829 307.302,631.229C309.782,628.817 315.539,622.544 326.595,615.652C334.438,610.763 332.842,609.141 339.561,602.819L340.497,602.503C342.11,605.334 342.166,605.184 345.047,611.718C355.638,635.735 358.785,633.62 374.112,654.769C380.413,663.464 381.479,671.565 387.971,662.875C415.105,626.554 416.491,627.292 426.229,603.386C441.204,603.714 425.01,622.142 416.329,643.501L416.26,646.534L417.783,649.373C419.109,650.371 418.844,650.987 420.513,650.574C449.416,643.428 458.299,633.666 460.706,631.021C463.202,633.271 462.904,633.839 464.53,633.782C464.952,633.768 464.869,633.569 468.917,624.724C472.672,616.519 502.07,567.726 505.064,560.006C505.982,557.86 505.745,557.939 505.921,555.689C511.296,548.902 519.91,543.342 523.54,540.561L528.309,537.234C543.664,526.695 556.575,517.078 562.117,513.011C562.593,512.663 583.55,496.941 592.181,489.148L595.321,486.291C604.278,477.991 605.241,478.41 608.443,466.484C612.629,450.46 619.299,426.574 617.739,419.449C616.447,413.551 606.434,395.539 605.317,393.53C605.649,393.392 605.047,392.591 605.379,392.453C609.175,390.879 608.153,396.225 628.446,399.803C629.279,412.83 632.491,412.165 642.287,458.531C640.532,458.483 640.668,457.942 620.464,456.298C610.604,455.495 615.016,495.967 603.709,504.689C600.099,507.474 590.173,517.363 553.303,543.125C545.676,548.455 546.92,549.561 544.271,558.454C542.818,563.333 539.807,575.958 539.442,577.486C536.555,589.591 536.586,589.431 536.384,590.48C535.032,597.488 532.945,604.337 532.583,605.525C531.449,609.249 531.439,609.18 531.487,609.507C531.689,610.883 533.195,609.679 533.411,611.149C537.559,609.198 548.291,604.147 580.545,578.565C596.158,566.182 607.803,589.812 614.965,574.941C616.733,571.772 631.212,545.804 637.743,535.712C638.818,534.051 654.296,541.691 655.593,542.251C660.697,544.454 658.997,507.393 664.25,440.472C664.502,437.258 667.795,438.877 667.248,436.517C663.308,419.529 663.362,419.583 656.844,403.431C649.6,390.678 648.59,391.396 641.768,378.362C632.929,361.476 633.713,361.211 624.59,344.48C627.604,343.237 627.481,344.717 641.611,353.342C648.232,357.757 648.089,357.75 654.579,362.341L656.45,362.476C650.27,346.776 649.997,347.092 643.476,331.51C625.129,288.421 626.614,287.924 620.158,272.656C619.181,270.345 610.889,259.649 605.155,251.769C592.473,236.792 592.387,237.07 586.275,230.715C569.737,215.524 569.84,215.656 552.814,201.162C542.405,191.575 542.418,191.771 527.417,178.6C511.634,165.237 511.546,165.601 506.693,162.191C501.349,159.246 501.455,159.452 495.612,157.186C441.223,139.496 415.372,138.137 386.167,158.012C378.199,163.434 380.23,144.764 335.499,144.21C310.765,143.904 271.9,157.817 266.579,159.722C257.751,163.666 257.555,163.425 197.056,217.116C188.583,224.076 177.448,231.356 151.932,266.822L150.182,269.261C147.041,274.157 148.032,274.603 122.358,336.441C113.484,357.981 109.174,365.337 114.737,360.918C116.063,359.866 126.538,353.261 127.573,352.609L136.717,346.822L140.76,343.966C142.274,343.203 142.233,342.864 143.711,343.452C138.85,351.939 128.835,373.874 127.612,376.552C119.788,389.986 119.72,389.713 110.902,402.736C110.817,402.861 110.902,402.736 110.321,404.526L109.219,406.4C100.538,442.267 105.122,442.669 106.16,479.512Z"/>
            <path d="M284.506,300.904C291.629,302.256 291.388,302.775 297.631,306.3C301.834,309.259 301.729,309.107 305.702,312.266C314.206,320.344 318.231,322.167 322.584,334.548C319.643,342.33 319.666,342.208 319.271,343.407C309.887,365.759 280.115,431.235 283.97,507.481C284.529,518.538 290.278,527.217 291.27,528.714C296.16,533.493 295.972,533.494 301.579,537.386C304.123,539.151 315.383,535.288 319.417,534.19L320.595,533.859C347.675,527.79 347.677,528.219 375.505,527.598C378.411,527.533 378.69,518.625 376.484,514.517C365.086,507.309 364.96,507.72 353.718,500.243C344.394,492.525 344.544,492.509 335.651,484.357L330.947,479.125C329.143,476.853 317.198,461.81 319.934,444.568C321.496,434.724 323.933,435.968 332.903,424.908C341.849,416.614 341.013,415.167 352.561,411.751C356.323,410.989 364.596,409.314 400.505,410.184C421.63,410.696 425.896,415.627 435.104,423.901L445.029,435.835C450.211,445.033 449.014,445.489 447.172,457.431C446.301,461.129 447.564,476.96 413.264,501.186C398.345,510.843 393.537,511.71 391.673,516.311C391.638,516.321 391.626,516.348 391.64,516.393C391.206,517.494 390.935,518.808 390.732,520.503C391.454,526.692 390.792,527.561 392.492,527.598C427.974,528.381 427.863,529.48 462.439,537.734C468.783,539.248 476.382,529.468 476.978,528.919C479.399,525.497 479.081,525.507 480.726,521.575C498.194,450.405 450.031,345.511 446.534,335.482L447.105,331.418C449.597,324.694 449.882,324.947 454.624,319.627L465.679,309.726C480.728,299.07 481.956,299.049 499.578,304.28L510.273,308.929C521.718,315.263 521.8,314.928 532.206,322.751C532.454,326.128 530.856,325.065 527.63,325.981C517.999,328.564 516.451,326.814 511.2,335.303C504.415,346.274 489.449,354.391 473.691,347.033C467.596,344.186 472.227,349.648 475.98,359.327C506.919,439.106 501.388,462.259 502.745,516.242C498.098,529.713 494.841,539.337 482.132,547.092C480.463,548.183 480.554,548.161 476.237,551.245C474.857,554.062 475.724,556.013 473.48,556.177C458.138,557.298 460.183,573.526 422.433,594.321C396.011,603.446 395.51,600.779 367.64,600.153C344.137,595.326 340.091,590.387 330.745,584.137C319.592,575.076 320.56,574.035 308.673,566.164C303.704,562.874 306.02,559.149 301.34,556.797C291.209,551.706 291.463,551.445 282.276,544.803C270.694,533.245 271.699,532.465 265.355,517.422L265.513,516.506C263.003,460.604 269.376,439.165 270.022,435.426L270.272,433.464C283.438,367.292 299.272,346.991 299.121,345.527C298.997,344.317 298.526,346.219 284.547,349.841C264.512,351.107 257.815,336.357 253.487,330.511C252.08,328.612 242.841,327.018 237.605,325.199C234.465,324.108 235.975,322.825 238.766,320.849C265.028,302.261 280.524,301.181 284.506,300.904ZM434.4,449.481C433.788,447.651 423.554,428.46 404.524,426.3C399.633,425.745 363.288,424.364 355.394,428.271C349.502,431.188 345.321,436.472 342.223,439.181C336.969,443.774 335.337,442.717 333.615,449.484C332.81,459.999 335.446,469.352 337.227,464.343C340.728,454.498 370.233,448.8 372.182,454.612C379.972,477.836 353.493,481.886 357.895,485.091C369.602,493.614 383.789,502.174 385.41,501.322C412.289,487.195 412.18,484.267 410.162,482.84C399.722,475.458 392.283,475.684 395.854,455.58C397.349,447.165 426.644,456.032 431.325,464.617C435.395,472.08 435.5,453.233 434.4,449.481ZM430.572,548.208C399.477,543.215 354.712,545.077 338.392,548.053C324.531,551.324 323.973,552.434 324.736,553.323C328.501,557.71 340.461,567.834 341.882,569.036C357.517,582.272 387.024,587.604 414.266,577.07C416.906,575.518 429.806,567.934 444.287,553.334C445.112,552.502 444.466,551.493 430.572,548.208ZM477.391,331.608C494.141,343.72 503.904,323.598 499.247,320.962C488.119,314.664 483.808,314.178 475.706,321.711C471.858,325.288 477.372,331.582 477.391,331.608ZM270.67,319.796C270.351,320.03 267.138,322.391 267.406,323.509C272.741,345.776 302.261,330.343 292.358,321.658C282.792,313.267 279.63,315.83 270.67,319.796Z"/>
        </g>
    </g>
</svg>
