<?xml version="1.0" encoding="UTF-8" standalone="no"?>
<!DOCTYPE svg PUBLIC "-//W3C//DTD SVG 1.1//EN" "http://www.w3.org/Graphics/SVG/1.1/DTD/svg11.dtd">
<svg width="100%" height="100%" viewBox="0 0 32 32" version="1.1" xmlns="http://www.w3.org/2000/svg" xmlns:xlink="http://www.w3.org/1999/xlink" xml:space="preserve" xmlns:serif="http://www.serif.com/" style="fill-rule:evenodd;clip-rule:evenodd;stroke-linejoin:round;stroke-miterlimit:2;">
    <g transform="matrix(0.369561,0,0,0.369561,-2.483241,-3.12499)">
        <g>
            <path d="M85.195,54.528C84.083,47.388 81.675,38.072 78.205,32.652C80.398,31.071 82.648,28.576 82.648,24.96C82.648,17.91 75.517,16.5 71.239,19.32C69.232,20.643 67.003,20.771 66.033,20.755C61.319,18.028 55.916,16.5 49.974,16.5C43.99,16.5 38.694,18.052 34.106,20.816L34.157,20.73C34.157,20.73 31.106,21.068 28.452,19.32C24.173,16.5 17.043,17.91 17.043,24.96C17.043,28.908 19.727,31.528 22.089,33.07C18.775,38.403 15.656,47.458 14.753,54.527C12.765,70.08 24.017,77.499 38.5,82C41.131,85.959 46.658,87 49.732,87C54,87 58.5,85.5 61.085,81.408C75.558,78.554 87.588,69.887 85.195,54.528Z" style="fill:rgb(183,119,72);fill-rule:nonzero;"/>
        </g>
        <g>
            <path d="M49.167,86.5L50.864,86.5C45.648,86.5 38.625,83.077 39.077,79.096L38.784,77.466C38.351,75.066 38.413,72.61 38.964,70.232L41.154,60.793C41.555,57.272 45.402,54.569 50.015,54.569C54.628,54.569 58.475,57.272 58.876,60.793L61.066,70.232C61.617,72.61 61.679,75.066 61.246,77.466L60.953,79.096C61.406,83.077 54.383,86.5 49.167,86.5Z" style="fill:rgb(253,212,178);fill-rule:nonzero;"/>
        </g>
        <g>
            <path d="M29.944,48.747C28.403,50.024 27.325,52.77 30.884,55.751C34.24,58.563 37.94,57.499 39.507,55.928C43.477,51.945 34.569,45.872 29.944,48.747Z" style="fill:rgb(234,168,113);fill-rule:nonzero;"/>
        </g>
        <g>
            <path d="M70.057,48.747C71.598,50.024 72.677,52.77 69.117,55.751C65.761,58.563 62.06,57.499 60.493,55.928C56.523,51.945 65.431,45.872 70.057,48.747Z" style="fill:rgb(234,168,113);fill-rule:nonzero;"/>
        </g>
        <g>
            <path d="M56.5,76.325C56.5,79.362 53.589,81 50,81C46.411,81 43.5,79.362 43.5,76.325C43.5,73.288 46.411,70 50,70C53.589,70 56.5,73.286 56.5,76.325Z" style="fill:rgb(68,68,69);fill-rule:nonzero;"/>
        </g>
        <g>
            <circle cx="35.5" cy="51.5" r="2.5" style="fill:rgb(31,33,43);"/>
        </g>
        <g>
            <circle cx="64.5" cy="51.5" r="2.5" style="fill:rgb(31,33,43);"/>
        </g>
        <g>
            <g>
                <path d="M51.002,77.333C51.002,78.069 51.568,78.5 52.264,78.5C52.96,78.5 54,78.236 54,77.5C54,76.764 52.33,75.5 51.633,75.5C50.936,75.5 51.002,76.597 51.002,77.333Z" style="fill:rgb(31,33,43);fill-rule:nonzero;"/>
            </g>
        </g>
        <g>
            <g>
                <path d="M48.998,77.333C48.998,78.069 48.432,78.5 47.736,78.5C47.038,78.5 46,78.236 46,77.5C46,76.764 47.67,75.5 48.367,75.5C49.064,75.5 48.998,76.597 48.998,77.333Z" style="fill:rgb(31,33,43);fill-rule:nonzero;"/>
            </g>
        </g>
        <g>
            <g>
                <path d="M23.847,20.958C22.765,20.958 21.809,21.284 21.157,21.875C20.418,22.545 20.043,23.583 20.043,24.96C20.043,27.077 21.283,28.961 23.729,30.559C23.729,30.559 23.945,30.565 24,30.5C27,27 32.5,24 32.5,24C31.063,24 29.448,23.568 26.802,21.825C25.953,21.266 24.904,20.958 23.847,20.958Z" style="fill:rgb(68,68,69);fill-rule:nonzero;"/>
            </g>
            <g>
                <path d="M75.842,20.958C74.785,20.958 73.736,21.266 72.888,21.825C70.338,23.506 68.913,23.5 67.5,23.5C67.5,23.5 72,26 76,30C76.064,30.064 76.45,30.218 76.45,30.218C78.571,28.69 79.646,26.921 79.646,24.96C79.647,21.478 77.263,20.958 75.842,20.958Z" style="fill:rgb(68,68,69);fill-rule:nonzero;"/>
            </g>
        </g>
        <g>
            <path d="M50,88C46.534,88 41.741,87.1 38.4,82.86C26.636,79.167 11.487,72.182 13.76,54.401C14.631,47.579 17.524,38.919 20.749,33.359C17.665,31.085 16.042,28.198 16.042,24.961C16.042,21.753 17.405,19.252 19.88,17.919C22.6,16.454 26.265,16.683 29.002,18.486C30.955,19.774 33.129,19.847 33.809,19.829C38.665,16.957 44.102,15.501 49.973,15.501C55.834,15.501 61.325,16.933 66.298,19.756C67.217,19.742 69.054,19.562 70.687,18.485C73.423,16.681 77.088,16.452 79.809,17.918C82.284,19.251 83.647,21.752 83.647,24.96C83.647,27.969 82.227,30.697 79.527,32.898C82.84,38.561 85.126,47.596 86.182,54.375C88.352,68.306 79.198,78.727 61.677,82.31C59.02,86.034 54.992,88 50,88ZM23.846,18.963C22.77,18.963 21.72,19.198 20.829,19.678C19.558,20.363 18.042,21.835 18.042,24.959C18.042,28.491 20.54,30.864 22.635,32.232C23.09,32.529 23.224,33.136 22.937,33.597C19.652,38.883 16.626,47.738 15.744,54.653C14.144,67.168 21.628,75.553 39.297,81.044C39.498,81.106 39.674,81.231 39.8,81.399C42.651,85.202 46.921,86 50,86C54.509,86 57.959,84.268 60.254,80.85C60.401,80.63 60.63,80.478 60.891,80.427C67.11,79.2 87.172,73.72 84.206,54.682C83.131,47.782 80.769,38.512 77.362,33.191C77.076,32.744 77.189,32.151 77.62,31.84C80.292,29.914 81.647,27.6 81.647,24.96C81.647,21.835 80.131,20.363 78.86,19.679C76.801,18.57 73.893,18.767 71.787,20.155C69.605,21.593 67.231,21.771 66.015,21.756C65.845,21.753 65.678,21.707 65.53,21.622C60.804,18.888 55.57,17.501 49.972,17.501C44.382,17.501 39.217,18.905 34.62,21.673C34.489,21.752 34.341,21.8 34.188,21.813C34.053,21.826 30.81,22.072 27.9,20.155C26.707,19.368 25.254,18.963 23.846,18.963Z" style="fill:rgb(31,33,43);fill-rule:nonzero;"/>
        </g>
        <g>
            <g>
                <path d="M23.792,31.061C23.76,31.061 23.727,31.06 23.693,31.057C23.609,31.051 23.527,31.023 23.456,30.977C20.859,29.281 19.543,27.257 19.543,24.96C19.543,23.436 19.973,22.273 20.821,21.504C21.566,20.829 22.64,20.458 23.847,20.458C25.001,20.458 26.148,20.796 27.077,21.408C29.502,23.006 30.949,23.012 32.343,23L32.5,23C32.733,23 32.935,23.161 32.987,23.388C33.039,23.615 32.927,23.848 32.718,23.95C32.707,23.955 31.639,24.475 30.264,25.331C30.03,25.477 29.722,25.406 29.576,25.171C29.43,24.937 29.502,24.629 29.736,24.483C30.069,24.275 30.384,24.087 30.671,23.921C29.569,23.776 28.239,23.371 26.527,22.243C24.994,21.233 22.614,21.228 21.493,22.246C20.863,22.817 20.543,23.73 20.543,24.96C20.543,26.819 21.615,28.499 23.73,29.957C24.366,28.866 25.377,27.744 26.742,26.615C26.956,26.439 27.272,26.469 27.446,26.681C27.622,26.894 27.592,27.209 27.38,27.385C25.987,28.537 25,29.662 24.445,30.73C24.333,30.945 24.103,31.061 23.792,31.061ZM23.557,30.269C23.557,30.269 23.556,30.27 23.556,30.271C23.556,30.27 23.557,30.269 23.557,30.269Z" style="fill:rgb(31,33,43);fill-rule:nonzero;"/>
            </g>
            <g>
                <path d="M76.45,30.718C76.396,30.718 76.342,30.709 76.289,30.692C75.742,30.506 75.628,30.366 75.56,30.238C75.315,29.785 74.998,29.328 74.619,28.879C74.44,28.668 74.467,28.353 74.677,28.174C74.889,27.996 75.204,28.022 75.382,28.232C75.776,28.697 76.111,29.173 76.379,29.65C78.216,28.26 79.148,26.683 79.148,24.96C79.148,22.065 77.351,21.458 75.844,21.458C74.884,21.458 73.933,21.736 73.165,22.242C71.627,23.256 70.471,23.685 69.487,23.867C70.507,24.388 71.827,25.142 73.091,26.102C73.311,26.269 73.354,26.582 73.187,26.802C73.02,27.023 72.706,27.065 72.487,26.898C70.069,25.062 67.346,23.976 67.319,23.965C67.096,23.877 66.966,23.642 67.011,23.406C67.057,23.165 67.255,22.987 67.517,22.999C68.905,22.999 70.207,22.994 72.615,21.406C73.545,20.794 74.692,20.457 75.844,20.457C77.138,20.457 80.148,20.895 80.148,24.959C80.148,27.089 79.002,28.995 76.744,30.623C76.656,30.686 76.554,30.718 76.45,30.718Z" style="fill:rgb(31,33,43);fill-rule:nonzero;"/>
            </g>
        </g>
        <g>
            <path d="M35.401,57.989C33.861,57.989 32.163,57.476 30.561,56.135C28.857,54.707 27.995,53.198 27.999,51.649C28.002,50.413 28.595,49.215 29.624,48.362L29.679,48.322C32.756,46.409 37.696,48.142 39.894,50.907C41.373,52.767 41.36,54.776 39.86,56.28C38.915,57.23 37.275,57.989 35.401,57.989ZM30.236,49.154C29.845,49.485 29.003,50.348 29,51.651C28.997,52.872 29.759,54.157 31.204,55.368C34.269,57.936 37.697,57.035 39.153,55.575C40.69,54.033 39.787,52.379 39.112,51.53C37.177,49.096 32.889,47.537 30.236,49.154Z" style="fill:rgb(31,33,43);fill-rule:nonzero;"/>
        </g>
        <g>
            <path d="M64.599,57.989C62.725,57.989 61.086,57.23 60.14,56.281C58.64,54.777 58.628,52.768 60.106,50.908C62.304,48.141 67.246,46.41 70.321,48.323L70.376,48.363C71.405,49.216 71.997,50.413 72.001,51.65C72.005,53.199 71.144,54.708 69.439,56.136C67.837,57.477 66.139,57.989 64.599,57.989ZM67.202,48.492C64.867,48.492 62.274,49.787 60.888,51.531C60.213,52.38 59.31,54.034 60.847,55.576C62.303,57.036 65.732,57.937 68.796,55.369C70.241,54.159 71.004,52.873 71,51.652C70.997,50.349 70.155,49.485 69.764,49.155C69.011,48.695 68.126,48.492 67.202,48.492Z" style="fill:rgb(31,33,43);fill-rule:nonzero;"/>
        </g>
        <g>
            <path d="M39.5,82.5C39.297,82.5 39.105,82.375 39.031,82.173C38.967,82 38.419,80.484 38.497,79.508L38.289,77.868C37.847,75.373 37.909,72.829 38.477,70.331L40.665,60.724C41.087,56.915 45.104,54 50,54C54.896,54 58.914,56.915 59.346,60.779L61.522,70.325C62.091,72.823 62.153,75.369 61.708,77.892L61.428,79.483C61.494,80.212 61.337,80.946 60.948,81.724C60.824,81.971 60.525,82.07 60.277,81.948C60.03,81.824 59.93,81.524 60.053,81.277C60.371,80.642 60.49,80.084 60.427,79.52L60.419,79.449L60.724,77.719C61.146,75.328 61.086,72.915 60.548,70.547L58.362,60.946C57.983,57.587 54.314,55 50,55C45.686,55 42.017,57.587 41.648,60.89L39.451,70.553C38.913,72.921 38.854,75.331 39.276,77.719L39.502,79.497L39.496,79.556C39.427,80.181 39.823,81.436 39.968,81.827C40.064,82.086 39.932,82.373 39.673,82.469C39.616,82.49 39.558,82.5 39.5,82.5Z" style="fill:rgb(31,33,43);fill-rule:nonzero;"/>
        </g>
        <g>
            <path d="M50.001,81.5C45.814,81.5 43.001,79.42 43.001,76.325C43.001,73.103 45.995,69.5 50.001,69.5C54.007,69.5 57.001,73.103 57.001,76.325C57.001,79.42 54.188,81.5 50.001,81.5ZM50.001,70.5C46.622,70.5 44.001,73.631 44.001,76.325C44.001,79.407 47.233,80.5 50.001,80.5C52.769,80.5 56.001,79.407 56.001,76.325C56.001,73.631 53.38,70.5 50.001,70.5Z" style="fill:rgb(31,33,43);fill-rule:nonzero;"/>
        </g>
        <g>
            <rect x="49" y="81" width="2" height="6" style="fill:rgb(31,33,43);"/>
        </g>
    </g>
</svg>
