<?xml version="1.0" encoding="UTF-8" standalone="no"?><!DOCTYPE svg PUBLIC "-//W3C//DTD SVG 1.1//EN" "http://www.w3.org/Graphics/SVG/1.1/DTD/svg11.dtd"><svg width="100%" height="100%" viewBox="0 0 120 110" version="1.1" xmlns="http://www.w3.org/2000/svg" xmlns:xlink="http://www.w3.org/1999/xlink" xml:space="preserve" xmlns:serif="http://www.serif.com/" style="fill-rule:evenodd;clip-rule:evenodd;stroke-linejoin:round;stroke-miterlimit:2;"><path d="M19.277,0.001l90.996,20.127l9.355,-0l-0,89.013l-102.619,-0c-3.522,0.078 -6.44,-2.714 -6.518,-6.235c-0.002,-0.048 -0.002,-0.096 -0.002,-0.143l0.001,-8.788l8.787,-93.974Z" style="fill:#705a01;fill-rule:nonzero;"/><path d="M110.84,89.297l-91.564,0l0.001,-89.295l85.043,-0c3.521,-0.078 6.44,2.713 6.518,6.234c0.001,0.048 0.001,0.096 0.001,0.144l0,82.917l0.001,0Z" style="fill:#dbae03;fill-rule:nonzero;"/><path d="M0,100.919l19.418,-11.622l0,-89.295l-19.418,11.622l0,89.295Z" style="fill:#eacd5d;fill-rule:nonzero;"/><path d="M71.295,28.775l-0,31.749l6.378,-0l0,8.929l-25.087,0l-0,-8.929l6.377,-0l0,-31.749l-6.519,-0l-0,-8.789l25.087,0l0,8.789l-6.236,-0Z" style="fill:#fff;fill-rule:nonzero;"/></svg>