<?xml version="1.0" encoding="UTF-8" standalone="no"?><!DOCTYPE svg PUBLIC "-//W3C//DTD SVG 1.1//EN" "http://www.w3.org/Graphics/SVG/1.1/DTD/svg11.dtd"><svg width="100%" height="100%" viewBox="0 0 300 360" version="1.1" xmlns="http://www.w3.org/2000/svg" xmlns:xlink="http://www.w3.org/1999/xlink" xml:space="preserve" xmlns:serif="http://www.serif.com/" style="fill-rule:evenodd;clip-rule:evenodd;stroke-linejoin:round;stroke-miterlimit:2;"><g id="g1"><path id="path8-4-4" d="M300,60l-60,60l-120,0l0,45l60,0l0,60l-60,0l0,75l-60,60l60.756,0c4.549,0 8.578,-2.929 9.984,-7.255l10.859,-33.425c1.038,-3.196 3.548,-5.697 6.744,-6.736l8.349,-2.713c3.196,-1.039 6.698,-0.487 9.417,1.488l28.425,20.658c3.68,2.673 8.668,2.673 12.348,0l25.479,-18.518c3.68,-2.674 5.219,-7.409 3.814,-11.736l-10.86,-33.424c-1.04,-3.197 -0.48,-6.699 1.495,-9.418l5.163,-7.1c1.975,-2.719 5.127,-4.333 8.488,-4.333l35.145,0.007c4.549,0 8.578,-2.936 9.983,-7.263l9.736,-29.951c1.406,-4.327 -0.135,-9.07 -3.813,-11.744l-28.433,-20.657c-2.719,-1.976 -4.325,-5.127 -4.325,-8.488l0,-8.783c0,-3.361 1.606,-6.52 4.325,-8.495l32.595,-23.681c2.72,-1.975 4.326,-5.134 4.326,-8.495l-0,-59.938Z" style="fill:#418fde;"/><path id="path7-7-2" d="M240,0l-60,60l60,0l0,60l60,-60l0,-60l-60,0Zm-180,240l-60,60l0,60l60,0l60,-60l-60,0l0,-60Z" style="fill:#ff585d;"/><path id="path3-1-7" d="M60,0l-60,60l0,240l60,-60l0,-180l120,0l60,-60l-180,0Z" style="fill:#cb333b;"/><path id="path9-4-0" d="M60,300l60,0l0,-75l60,0l0,-60l-60,0l0,-45l120,0l0,-60l-180,0l0,240Z" style="fill:#fff;"/></g></svg>