<?xml version="1.0" encoding="UTF-8" standalone="no"?>
<svg width="100%" height="100%" viewBox="30 0 210 240" version="1.1" xmlns="http://www.w3.org/2000/svg" style="fill-rule:evenodd;clip-rule:evenodd;">
    <path d="M182.398,160.657L126.326,192.666C123.569,194.24 119.043,194.252 116.274,192.681L59.363,160.429C56.598,158.861 54.327,155.003 54.321,151.861L54.218,87.177C54.212,84.032 56.47,80.168 59.23,78.591L116.037,46.162C118.806,44.582 123.326,44.576 126.095,46.144L181.467,77.526C184.233,79.091 184.239,81.667 181.476,83.241L162.57,94.037C159.807,95.614 155.287,95.62 152.518,94.048L125.561,78.749C122.796,77.178 118.266,77.184 115.506,78.758L87.438,94.758C84.675,96.332 82.416,100.193 82.416,103.341L82.446,135.286C82.452,138.434 84.717,142.288 87.482,143.86L115.581,159.807C118.349,161.375 122.87,161.369 125.632,159.795L153.179,144.099C155.939,142.525 160.468,142.519 163.234,144.084L182.386,154.942C185.161,156.51 185.161,159.086 182.398,160.657M218.692,69.46C218.686,66.318 216.419,62.46 213.65,60.895L126.024,11.25C123.264,9.682 118.735,9.688 115.975,11.268L28.523,61.198C25.761,62.775 23.502,66.639 23.508,69.787L23.683,169.365C23.683,172.51 25.953,176.365 28.719,177.933L116.345,227.578C119.111,229.149 123.634,229.137 126.4,227.563L213.852,177.63C216.608,176.05 218.867,172.186 218.867,169.041L218.692,69.46Z" style="fill:rgb(128,196,115);fill-rule:nonzero;"/>
</svg>
